{
  "accessors": [
    {
      "bufferView": 2,
      "componentType": 5126,
      "count": 385,
      "max": [
        5.004494667053223,
        0.656163215637207,
        5.833690166473389
      ],
      "min": [
        -5.036223888397217,
        -0.7508058547973633,
        -5.830513954162598
      ],
      "type": "VEC3"
    },
    {
      "bufferView": 2,
      "byteOffset": 4620,
      "componentType": 5126,
      "count": 385,
      "max": [
        0.9682690501213074,
        0.9999991655349731,
        0.9958510398864746
      ],
      "min": [
        -0.9908791780471802,
        -0.9999813437461853,
        -0.9996556639671326
      ],
      "type": "VEC3"
    },
    {
      "bufferView": 3,
      "componentType": 5126,
      "count": 385,
      "max": [
        0.9998984932899475,
        0.9902361035346985,
        0.9140822887420654,
        1.0
      ],
      "min": [
        -0.9935421347618103,
        -0.9935553669929504,
        -0.9654394388198853,
        1.0
      ],
      "type": "VEC4"
    },
    {
      "bufferView": 1,
      "componentType": 5126,
      "count": 385,
      "max": [
        0.9877662062644958,
        0.9965454339981079
      ],
      "min": [
        0.0005271746194921434,
        0.0005457699298858643
      ],
      "type": "VEC2"
    },
    {
      "bufferView": 0,
      "componentType": 5125,
      "count": 1620,
      "type": "SCALAR"
    }
  ],
  "asset": {
    "extras": {
      "author": "Alex Bes (https://sketchfab.com/alexbescg)",
      "license": "CC-BY-4.0 (http://creativecommons.org/licenses/by/4.0/)",
      "source": "https://sketchfab.com/3d-models/nails-01b4745c45ac480d99d51879165cd247",
      "title": "Nails"
    },
    "generator": "Sketchfab-12.68.0",
    "version": "2.0"
  },
  "bufferViews": [
    {
      "buffer": 0,
      "byteLength": 6480,
      "name": "floatBufferViews",
      "target": 34963
    },
    {
      "buffer": 0,
      "byteLength": 3080,
      "byteOffset": 6480,
      "byteStride": 8,
      "name": "floatBufferViews",
      "target": 34962
    },
    {
      "buffer": 0,
      "byteLength": 9240,
      "byteOffset": 9560,
      "byteStride": 12,
      "name": "floatBufferViews",
      "target": 34962
    },
    {
      "buffer": 0,
      "byteLength": 6160,
      "byteOffset": 18800,
      "byteStride": 16,
      "name": "floatBufferViews",
      "target": 34962
    }
  ],
  "buffers": [
    {
      "byteLength": 24960,
      "uri": "scene.bin"
    }
  ],
  "images": [
    {
      "uri": "textures/nails_mat_baseColor.jpeg"
    },
    {
      "uri": "textures/nails_mat_metallicRoughness.png"
    },
    {
      "uri": "textures/nails_mat_normal.jpeg"
    }
  ],
  "materials": [
    {
      "doubleSided": true,
      "name": "nails_mat",
      "normalTexture": {
        "index": 2
      },
      "occlusionTexture": {
        "index": 1
      },
      "pbrMetallicRoughness": {
        "baseColorTexture": {
          "index": 0
        },
        "metallicRoughnessTexture": {
          "index": 1
        }
      }
    }
  ],
  "meshes": [
    {
      "name": "nails_model_nails_mat_0",
      "primitives": [
        {
          "attributes": {
            "NORMAL": 1,
            "POSITION": 0,
            "TANGENT": 2,
            "TEXCOORD_0": 3
          },
          "indices": 4,
          "material": 0,
          "mode": 4
        }
      ]
    }
  ],
  "nodes": [
    {
      "children": [
        1
      ],
      "matrix": [
        1.0,
        0.0,
        0.0,
        0.0,
        0.0,
        2.220446049250313e-16,
        -1.0,
        0.0,
        0.0,
        1.0,
        2.220446049250313e-16,
        0.0,
        0.0,
        0.0,
        0.0,
        1.0
      ],
      "name": "Sketchfab_model"
    },
    {
      "children": [
        2
      ],
      "matrix": [
        1.0,
        0.0,
        0.0,
        0.0,
        0.0,
        0.0,
        1.0,
        0.0,
        0.0,
        -1.0,
        0.0,
        0.0,
        0.0,
        0.0,
        0.0,
        1.0
      ],
      "name": "57674e1c0f3b4809922114d954a520f9.fbx"
    },
    {
      "children": [
        3
      ],
      "name": "RootNode"
    },
    {
      "children": [
        4
      ],
      "name": "nails_model"
    },
    {
      "mesh": 0,
      "name": "nails_model_nails_mat_0"
    }
  ],
  "samplers": [
    {
      "magFilter": 9729,
      "minFilter": 9987,
      "wrapS": 10497,
      "wrapT": 10497
    }
  ],
  "scene": 0,
  "scenes": [
    {
      "name": "Sketchfab_Scene",
      "nodes": [
        0
      ]
    }
  ],
  "textures": [
    {
      "sampler": 0,
      "source": 0
    },
    {
      "sampler": 0,
      "source": 1
    },
    {
      "sampler": 0,
      "source": 2
    }
  ]
}
