{
  "accessors": [
    {
      "bufferView": 2,
      "componentType": 5126,
      "count": 3329,
      "max": [
        0.01100000087171793,
        0.06916000694036484,
        0.006000000052154064
      ],
      "min": [
        -0.01100000087171793,
        -0.06916000694036484,
        0.0
      ],
      "type": "VEC3"
    },
    {
      "bufferView": 2,
      "byteOffset": 39948,
      "componentType": 5126,
      "count": 3329,
      "max": [
        0.9999995231628418,
        0.9999995827674866,
        1.0
      ],
      "min": [
        -0.9999995231628418,
        -0.9999995827674866,
        -1.0
      ],
      "type": "VEC3"
    },
    {
      "bufferView": 3,
      "componentType": 5126,
      "count": 3329,
      "max": [
        1.0,
        1.0,
        0.9999988675117493,
        1.0
      ],
      "min": [
        -1.0,
        -1.0,
        -0.999998927116394,
        -1.0
      ],
      "type": "VEC4"
    },
    {
      "bufferView": 1,
      "componentType": 5126,
      "count": 3329,
      "max": [
        0.9934289455413818,
        0.99609375
      ],
      "min": [
        0.00390625,
        0.00390625
      ],
      "type": "VEC2"
    },
    {
      "bufferView": 0,
      "componentType": 5125,
      "count": 18468,
      "type": "SCALAR"
    }
  ],
  "asset": {
    "extras": {
      "author": "famousandfaded (https://sketchfab.com/famousandfaded)",
      "license": "SKETCHFAB Standard (https://sketchfab.com/licenses)",
      "source": "https://sketchfab.com/3d-models/alnico-rectangular-bar-magnet-d6764405fb174b4b82063a56ffd3d63d",
      "title": "Alnico rectangular bar magnet"
    },
    "generator": "Sketchfab-15.49.0",
    "version": "2.0"
  },
  "bufferViews": [
    {
      "buffer": 0,
      "byteLength": 73872,
      "name": "floatBufferViews",
      "target": 34963
    },
    {
      "buffer": 0,
      "byteLength": 26632,
      "byteOffset": 73872,
      "byteStride": 8,
      "name": "floatBufferViews",
      "target": 34962
    },
    {
      "buffer": 0,
      "byteLength": 79896,
      "byteOffset": 100504,
      "byteStride": 12,
      "name": "floatBufferViews",
      "target": 34962
    },
    {
      "buffer": 0,
      "byteLength": 53264,
      "byteOffset": 180400,
      "byteStride": 16,
      "name": "floatBufferViews",
      "target": 34962
    }
  ],
  "buffers": [
    {
      "byteLength": 233664,
      "uri": "scene.bin"
    }
  ],
  "images": [
    {
      "uri": "textures/matmaterial_magnet_baseColor.png"
    },
    {
      "uri": "textures/matmaterial_magnet_metallicRoughness.png"
    },
    {
      "uri": "textures/matmaterial_magnet_normal.png"
    }
  ],
  "materials": [
    {
      "doubleSided": true,
      "name": "matmaterial_magnet",
      "normalTexture": {
        "index": 2
      },
      "occlusionTexture": {
        "index": 1
      },
      "pbrMetallicRoughness": {
        "baseColorTexture": {
          "index": 0
        },
        "metallicRoughnessTexture": {
          "index": 1
        }
      }
    }
  ],
  "meshes": [
    {
      "name": "Object_0",
      "primitives": [
        {
          "attributes": {
            "NORMAL": 1,
            "POSITION": 0,
            "TANGENT": 2,
            "TEXCOORD_0": 3
          },
          "indices": 4,
          "material": 0,
          "mode": 4
        }
      ]
    }
  ],
  "nodes": [
    {
      "children": [
        1
      ],
      "matrix": [
        1.0,
        0.0,
        0.0,
        0.0,
        0.0,
        2.220446049250313e-16,
        -1.0,
        0.0,
        0.0,
        1.0,
        2.220446049250313e-16,
        0.0,
        0.0,
        0.0,
        0.0,
        1.0
      ],
      "name": "Sketchfab_model"
    },
    {
      "children": [
        2
      ],
      "name": "magnet.obj.cleaner.materialmerger.gles"
    },
    {
      "mesh": 0,
      "name": "Object_2"
    }
  ],
  "samplers": [
    {
      "magFilter": 9729,
      "minFilter": 9987,
      "wrapS": 10497,
      "wrapT": 10497
    }
  ],
  "scene": 0,
  "scenes": [
    {
      "name": "Sketchfab_Scene",
      "nodes": [
        0
      ]
    }
  ],
  "textures": [
    {
      "sampler": 0,
      "source": 0
    },
    {
      "sampler": 0,
      "source": 1
    },
    {
      "sampler": 0,
      "source": 2
    }
  ]
}
