{
  "accessors": [
    {
      "bufferView": 2,
      "componentType": 5126,
      "count": 6411,
      "max": [
        17.55668067932129,
        10.646053314208984,
        9.349746704101563
      ],
      "min": [
        -6.959325790405273,
        7.150812149047852,
        -15.132854461669922
      ],
      "type": "VEC3"
    },
    {
      "bufferView": 2,
      "byteOffset": 76932,
      "componentType": 5126,
      "count": 6411,
      "max": [
        0.9850594401359558,
        0.998115599155426,
        0.9772821664810181
      ],
      "min": [
        -0.9947848320007324,
        -0.9999956488609314,
        -0.997967004776001
      ],
      "type": "VEC3"
    },
    {
      "bufferView": 1,
      "componentType": 5126,
      "count": 6411,
      "max": [
        0.9999889731407166,
        0.9947620034217834
      ],
      "min": [
        3.7999998312443495e-05,
        9.000000318337698e-06
      ],
      "type": "VEC2"
    },
    {
      "bufferView": 0,
      "componentType": 5125,
      "count": 29997,
      "type": "SCALAR"
    }
  ],
  "asset": {
    "extras": {
      "author": "Forest Run Forever (https://sketchfab.com/2w)",
      "license": "CC-BY-4.0 (http://creativecommons.org/licenses/by/4.0/)",
      "source": "https://sketchfab.com/3d-models/floor-concrete-da0bf33a0e2c4a1da947e490b80422c1",
      "title": "Floor Concrete"
    },
    "generator": "Sketchfab-12.67.0",
    "version": "2.0"
  },
  "bufferViews": [
    {
      "buffer": 0,
      "byteLength": 119988,
      "name": "floatBufferViews",
      "target": 34963
    },
    {
      "buffer": 0,
      "byteLength": 51288,
      "byteOffset": 119988,
      "byteStride": 8,
      "name": "floatBufferViews",
      "target": 34962
    },
    {
      "buffer": 0,
      "byteLength": 153864,
      "byteOffset": 171276,
      "byteStride": 12,
      "name": "floatBufferViews",
      "target": 34962
    }
  ],
  "buffers": [
    {
      "byteLength": 325140,
      "uri": "scene.bin"
    }
  ],
  "extensionsUsed": [
    "KHR_materials_unlit"
  ],
  "images": [
    {
      "uri": "textures/floor_4x4_free_baseColor.jpeg"
    }
  ],
  "materials": [
    {
      "doubleSided": true,
      "extensions": {
        "KHR_materials_unlit": {}
      },
      "name": "floor_4x4_free",
      "pbrMetallicRoughness": {
        "baseColorTexture": {
          "index": 0
        },
        "metallicFactor": 0.0
      }
    }
  ],
  "meshes": [
    {
      "name": "Object_0",
      "primitives": [
        {
          "attributes": {
            "NORMAL": 1,
            "POSITION": 0,
            "TEXCOORD_0": 2
          },
          "indices": 3,
          "material": 0,
          "mode": 4
        }
      ]
    }
  ],
  "nodes": [
    {
      "children": [
        1
      ],
      "matrix": [
        0.9907280206680298,
        -0.11740192770957948,
        0.06837216764688489,
        0.0,
        -0.1188899576663971,
        -0.9927424192428589,
        0.018103053793310897,
        0.0,
        0.0657506138086319,
        -0.02606396749615647,
        -0.9974956512451172,
        0.0,
        1.2971879243850708,
        6.488973617553714,
        -12.306158065795897,
        1.0
      ],
      "name": "Sketchfab_model"
    },
    {
      "children": [
        2
      ],
      "name": "floor_4x4_free.obj.cleaner.materialmerger.gles"
    },
    {
      "mesh": 0,
      "name": "Object_2"
    }
  ],
  "samplers": [
    {
      "magFilter": 9729,
      "minFilter": 9987,
      "wrapS": 10497,
      "wrapT": 10497
    }
  ],
  "scene": 0,
  "scenes": [
    {
      "name": "Sketchfab_Scene",
      "nodes": [
        0
      ]
    }
  ],
  "textures": [
    {
      "sampler": 0,
      "source": 0
    }
  ]
}
